# xmcd CD database file
#
# Track frame offsets:
#	150
#	12727
#	26892
#	42763
#	60718
#
# Disc length: 1109 seconds
#
# Revision: 0
# Processed by: cddbd v1.5.1PL0 Copyright (c) Steve Scherf et al.
# Submitted via: CDex 1.51
#
DISCID=3f045305
DTITLE=青猫屋 - RIDE
DYEAR=1900
DGENRE=日本 (一般)
TTITLE0=Sunyday's Kanon
TTITLE1=Nostalgia
TTITLE2=Initializing-R
TTITLE3=Radical Prophets
TTITLE4=Song from "UCHINAH"
EXTD=
EXTT0=
EXTT1=
EXTT2=
EXTT3=
EXTT4=
PLAYORDER=
